<svg preserveAspectRatio="none" overflow="visible" style="display: block;" width="24" height="24" viewBox="0 0 24 24" fill="none" xmlns="http://www.w3.org/2000/svg">
<g id="Group">
<path id="Vector" d="M15.3822 15.3823C15.2252 15.5391 15.0124 15.6272 14.7906 15.6272C14.5687 15.6272 14.3559 15.5391 14.1989 15.3823L11.9999 13.1832L9.80079 15.3823C9.72415 15.4646 9.63172 15.5305 9.52902 15.5763C9.42633 15.6221 9.31546 15.6467 9.20305 15.6486C9.09064 15.6506 8.97898 15.6299 8.87473 15.5878C8.77049 15.5457 8.67579 15.4831 8.59629 15.4036C8.51679 15.3241 8.45411 15.2294 8.41201 15.1251C8.3699 15.0209 8.34922 14.9092 8.3512 14.7968C8.35319 14.6844 8.37779 14.5735 8.42355 14.4708C8.46931 14.3681 8.53528 14.2757 8.61754 14.1991L10.8166 12L8.61754 9.80092C8.53528 9.72427 8.46931 9.63184 8.42355 9.52915C8.37779 9.42645 8.35319 9.31559 8.3512 9.20317C8.34922 9.09076 8.3699 8.9791 8.41201 8.87485C8.45411 8.77061 8.51679 8.67591 8.59629 8.59641C8.67579 8.51691 8.77049 8.45424 8.87473 8.41213C8.97898 8.37002 9.09064 8.34934 9.20305 8.35133C9.31546 8.35331 9.42633 8.37791 9.52902 8.42367C9.63172 8.46943 9.72415 8.53541 9.80079 8.61766L11.9999 10.8167L14.1989 8.61766C14.3576 8.46978 14.5675 8.38927 14.7844 8.39309C15.0013 8.39692 15.2083 8.48479 15.3617 8.63818C15.5151 8.79157 15.6029 8.99851 15.6068 9.2154C15.6106 9.4323 15.5301 9.64221 15.3822 9.80092L13.1831 12L15.3822 14.1991C15.539 14.356 15.627 14.5688 15.627 14.7907C15.627 15.0125 15.539 15.2253 15.3822 15.3823Z" fill="#3D3D3D"/>
<path id="Vector_2" fill-rule="evenodd" clip-rule="evenodd" d="M1.74921e-05 12C1.74921e-05 5.37265 5.37266 0 12 0C18.6274 0 24 5.37265 24 12C24 18.6273 18.6274 24 12 24C9.72057 24 7.58848 23.3637 5.77118 22.2586L3.37118 23.1315C1.81285 23.6986 0.301413 22.1871 0.867366 20.6288L1.7403 18.2288C0.598427 16.3521 -0.00374155 14.1968 1.74921e-05 12ZM12 1.67442C9.2615 1.67442 6.63515 2.76229 4.69873 4.69871C2.7623 6.63513 1.67443 9.26148 1.67443 12C1.67443 14.0015 2.24374 15.8679 3.22718 17.4497C3.45043 17.8069 3.51071 18.259 3.3589 18.6776L2.44132 21.2004C2.42334 21.2502 2.41992 21.3041 2.43146 21.3558C2.443 21.4076 2.46903 21.4549 2.5065 21.4924C2.54396 21.5299 2.59132 21.5559 2.64304 21.5674C2.69475 21.579 2.74868 21.5755 2.79853 21.5576L5.32243 20.6411C5.74104 20.4893 6.19313 20.5496 6.55034 20.7717C8.18521 21.7905 10.0737 22.329 12 22.3256C14.7385 22.3256 17.3649 21.2377 19.3013 19.3013C21.2377 17.3649 22.3256 14.7385 22.3256 12C22.3256 9.26148 21.2377 6.63513 19.3013 4.69871C17.3649 2.76229 14.7385 1.67442 12 1.67442Z" fill="#3D3D3D"/>
</g>
</svg>
